Coordinates
version=1
nRows=20
nColumns=38
inDegrees=no

Units are S.I. units (second, meters, Newtons, ...)
If the header above contains a line with 'inDegrees', this indicates whether rotational values are in degrees (yes) or radians (no).

endheader
time	pelvis_tilt	pelvis_list	pelvis_rotation	pelvis_tx	pelvis_ty	pelvis_tz	hip_flexion_r	hip_adduction_r	hip_rotation_r	knee_angle_r	ankle_angle_r	subtalar_angle_r	mtp_angle_r	hip_flexion_l	hip_adduction_l	hip_rotation_l	knee_angle_l	ankle_angle_l	subtalar_angle_l	mtp_angle_l	lumbar_extension	lumbar_bending	lumbar_rotation	arm_flex_r	arm_add_r	arm_rot_r	elbow_flex_r	pro_sup_r	wrist_flex_r	wrist_dev_r	arm_flex_l	arm_add_l	arm_rot_l	elbow_flex_l	pro_sup_l	wrist_flex_l	wrist_dev_l
0	-0.969089	1.51644	2.45264	0.706274	-0.323319	1.00021	0.544091	-0.136907	0.0588838	1.37039	-0.188558	0	0	0.24332	0.0330052	-0.175538	0.402002	0.131782	0	0	-0.24152	-0.0577312	0.0856047	0.00283073	-0.257748	0.196133	0.42463	1.2252	0	0	0.130038	-0.20832	0.372002	0.366558	1.35804	0	0
0.01	-0.8391	1.51682	2.32258	0.705991	-0.315296	1.00138	0.584192	-0.150205	0.0302008	1.38195	-0.205801	0	0	0.233688	0.0302524	-0.174607	0.390477	0.134833	0	0	-0.238012	-0.0523183	0.0844215	0.0130644	-0.260255	0.21014	0.416418	1.21972	0	0	0.137432	-0.207709	0.388604	0.360503	1.3377	0	0
0.02	-0.654213	1.5151	2.13398	0.705967	-0.307734	1.00212	0.607419	-0.10408	0.0730434	1.37211	-0.198118	0	0	0.228162	0.0244731	-0.174096	0.380811	0.135005	0	0	-0.23321	-0.0458217	0.0868399	0.0230952	-0.262375	0.2184	0.410637	1.21692	0	0	0.144077	-0.206158	0.395096	0.355349	1.33072	0	0
0.03	-0.573481	1.51581	2.05234	0.705664	-0.299131	1.00293	0.624946	-0.0962609	0.0696918	1.36131	-0.19375	0	0	0.214204	0.0228617	-0.172326	0.369071	0.135948	0	0	-0.232914	-0.0413681	0.0857754	0.0314522	-0.264359	0.22831	0.404373	1.2131	0	0	0.148686	-0.204795	0.401056	0.349552	1.32329	0	0
0.04	-0.492309	1.51906	1.97196	0.705246	-0.290384	1.00379	0.636893	-0.0899488	0.0621534	1.34568	-0.184789	0	0	0.197719	0.020571	-0.167958	0.358028	0.137866	0	0	-0.235827	-0.0351427	0.0830172	0.0403397	-0.266704	0.23973	0.398209	1.20847	0	0	0.153166	-0.2028	0.405886	0.343404	1.3157	0	0
0.05	-0.39921	1.52314	1.8798	0.704817	-0.281658	1.00457	0.645935	-0.084805	0.0525723	1.32589	-0.173946	0	0	0.180833	0.0177154	-0.163279	0.348675	0.14023	0	0	-0.240375	-0.0281926	0.0799942	0.0500391	-0.269038	0.252325	0.391403	1.20303	0	0	0.158119	-0.199928	0.410289	0.336719	1.30876	0	0
0.06	-0.293445	1.52673	1.77496	0.704441	-0.272911	1.00514	0.654456	-0.082147	0.0398471	1.30368	-0.162834	0	0	0.164415	0.0148212	-0.158875	0.340194	0.142669	0	0	-0.244918	-0.0213942	0.0770697	0.0598319	-0.271017	0.26569	0.383541	1.19703	0	0	0.162929	-0.196806	0.414191	0.329635	1.30255	0	0
0.07	-0.177052	1.52992	1.65961	0.704136	-0.264124	1.00556	0.66114	-0.0808372	0.0256464	1.27812	-0.151497	0	0	0.147945	0.0121474	-0.15383	0.331659	0.145231	0	0	-0.249747	-0.0148265	0.0742988	0.0692069	-0.272585	0.278762	0.375821	1.19086	0	0	0.167043	-0.193755	0.416646	0.323773	1.29744	0	0
0.08	-0.0531239	1.53345	1.53654	0.703906	-0.255218	1.00589	0.665067	-0.0809939	0.00981236	1.24942	-0.139318	0	0	0.130277	0.00969831	-0.148817	0.322697	0.148665	0	0	-0.255616	-0.00875448	0.0721724	0.0779501	-0.273915	0.290509	0.368506	1.1841	0	0	0.170965	-0.190578	0.417873	0.318457	1.29339	0	0
0.09	0.0965709	1.53634	1.38776	0.703334	-0.246408	1.00603	0.654667	-0.0667727	0.0128828	1.20195	-0.11335	0	0	0.112819	0.00662772	-0.143962	0.314531	0.153796	0	0	-0.26156	-0.00244868	0.0707813	0.086041	-0.275181	0.299978	0.361298	1.17696	0	0	0.174735	-0.187071	0.417984	0.313352	1.29	0	0
0.1	0.25587	1.53853	1.22781	0.703711	-0.237342	1.00608	0.656052	-0.0664826	-0.00187441	1.16735	-0.10273	0	0	0.096188	0.00343684	-0.143447	0.308599	0.159917	0	0	-0.267925	0.00257222	0.0710692	0.0933312	-0.276237	0.307766	0.355503	1.17007	0	0	0.178788	-0.183901	0.416733	0.309097	1.28761	0	0
0.11	0.424929	1.54172	1.0595	0.703703	-0.228261	1.00608	0.665082	-0.0876373	-0.0475181	1.14636	-0.10114	0	0	0.0784828	0.00146529	-0.141882	0.30489	0.166348	0	0	-0.275793	0.00707946	0.069733	0.0997741	-0.278846	0.323461	0.351809	1.1534	0	0	0.182739	-0.179532	0.409043	0.303028	1.28923	0	0
0.12	-0.0727733	1.55511	1.57019	0.701327	-0.217074	1.00534	0.64264	-0.0932106	-0.0274139	1.0961	-0.0659016	0	0	0.0514826	0.0226561	-0.127163	0.294277	0.169228	0	0	-0.282991	-0.00207162	0.0532054	0.0974111	-0.281293	0.330733	0.35318	1.14882	0	0	0.180931	-0.177826	0.408167	0.301263	1.29168	0	0
0.13	0.609441	1.5386	0.872665	0.704136	-0.21035	1.00489	0.654685	-0.0720534	-0.0558687	1.04564	-0.0706674	0	0	0.0561582	-0.00372708	-0.141693	0.302226	0.18027	0	0	-0.282241	0.0138148	0.0725596	0.106035	-0.282905	0.337971	0.351946	1.14841	0	0	0.188112	-0.175241	0.406306	0.298896	1.29264	0	0
0.14	0.691598	1.53551	0.789082	0.70443	-0.20159	1.00412	0.652512	-0.0724978	-0.077616	0.998506	-0.0598478	0	0	0.0466862	-0.00784268	-0.143218	0.303802	0.187976	0	0	-0.284532	0.0183702	0.0747107	0.107881	-0.285555	0.341423	0.353756	1.148	0	0	0.189753	-0.17259	0.40309	0.297074	1.29463	0	0
0.15	0.753416	1.53282	0.727926	0.704956	-0.19193	1.00326	0.648637	-0.0739662	-0.100902	0.949791	-0.0499654	0	0	0.0375609	-0.0113646	-0.144101	0.305348	0.193804	0	0	-0.286908	0.0222652	0.0748055	0.108854	-0.287464	0.342064	0.357697	1.14632	0	0	0.19112	-0.171279	0.399371	0.296968	1.29743	0	0
0.16	0.808546	1.53057	0.673872	0.705408	-0.182501	1.00241	0.642649	-0.0757053	-0.125617	0.89973	-0.0405979	0	0	0.0278085	-0.0144084	-0.143397	0.307699	0.201326	0	0	-0.289658	0.0260783	0.0744982	0.109365	-0.289744	0.342153	0.36177	1.1449	0	0	0.192066	-0.169766	0.395489	0.297045	1.30012	0	0
0.17	0.858438	1.52765	0.626008	0.705892	-0.172886	1.00152	0.635154	-0.0766652	-0.152104	0.847772	-0.032748	0	0	0.0184139	-0.0182852	-0.142771	0.309869	0.209983	0	0	-0.291865	0.0306555	0.0734881	0.109364	-0.292083	0.342582	0.365895	1.14424	0	0	0.192679	-0.168307	0.391378	0.297168	1.30245	0	0
0.18	0.923748	1.52406	0.563496	0.706556	-0.163106	1.00066	0.625165	-0.0760984	-0.180747	0.793906	-0.026474	0	0	0.00780575	-0.0234257	-0.141654	0.310602	0.218417	0	0	-0.2944	0.0364831	0.0720868	0.109056	-0.294548	0.343476	0.370313	1.14317	0	0	0.193071	-0.166692	0.386392	0.296635	1.30568	0	0
0.19	0.980159	1.522	0.517155	0.707677	-0.153012	0.999953	0.613047	-0.0704929	-0.206334	0.740634	-0.0257608	0	0	-0.00523932	-0.0354016	-0.149729	0.308262	0.233578	0	0	-0.297094	0.0403234	0.0678743	0.106054	-0.295386	0.343997	0.37443	1.14188	0	0	0.195158	-0.166342	0.381944	0.296231	1.30907	0	0
